PathFileType	4	(X/Y/Z)	C:\Users\°ÂÌØÂü\Desktop\20210112\bx_y_0_501-Unnamed.trc
DataRate	CameraRate	NumFrames	NumMarkers	Units	OrigDataRate	OrigDataStartFrame	OrigNumFrames
50.00	50.00	       6	0	mm	50.00	453	       603
Frame#	Time	
		

453	9.040	-684.58972	-55.40061	1551.61987	-665.58575	-48.88148	734.03333	-572.25793	222.59831	815.09625	-675.38379	268.44644	709.12262	-572.10992	6.64391	803.92535	-631.15216	287.22867	878.37097	-719.36987	252.52525	639.04333	-581.52826	2.63219	1053.99023	-724.88013	248.82431	575.76019	-656.74493	23.57266	518.81830	-766.68280	255.86986	503.48212	-670.94885	209.51436	532.03802	-638.61029	-63.48038	865.82190	-663.27881	-66.77591	163.41367	-711.15466	152.42155	216.23610	-771.50403	222.32138	205.34888	-622.06348	-77.34202	159.36108	-882.48492	296.28201	144.80209	-675.62274	55.01617	157.15634	-603.73132	20.31947	165.93916	-675.70630	174.20906	157.36195	-594.47949	221.84859	173.33556	-667.16425	299.21631	159.76936	-629.71802	306.12329	162.35335	-559.63287	258.48315	165.90686	-527.90778	304.36624	146.72336	-685.55078	129.97734	1848.76892	-709.25708	306.55295	1536.06909	-517.63885	-72.70674	143.09174	-796.10291	171.76839	184.38086	-766.54041	-4.18548	209.57483	-794.44189	55.76130	175.42537	-683.33862	147.87236	573.41711	-753.76483	-29.54872	491.06750	-559.74908	-37.23741	164.20461	-875.86676	-78.59661	141.35963				-692.71844	-22.89052	613.12445	-704.22443	-20.34946	568.30994	-715.72888	78.58614	215.66792	-577.86853	228.53644	1073.44897	-780.17908	102.69684	1051.98352	-677.77411	85.21182	574.60840	
454	9.060	-684.47900	-55.25262	1551.85718	-665.57861	-49.00162	733.93353	-572.11060	222.99858	815.14557	-675.87384	268.32629	708.95691	-572.24750	6.67825	803.90863	-631.15216	287.22867	878.37097	-719.44672	252.71968	639.13605	-581.79285	2.67294	1053.87756	-724.88239	248.76779	575.81958	-656.78400	23.68666	518.55493	-766.64349	255.94971	503.49194	-670.86304	209.43414	532.09918	-638.54926	-63.48378	865.94464	-663.19910	-66.69450	163.33119	-711.15466	152.42155	216.23610	-771.57397	222.34761	205.50467	-622.13373	-77.34674	159.29831	-882.48688	296.20758	144.78180	-675.75458	54.99820	157.22641	-603.79095	20.31243	165.88611	-675.77997	174.22372	157.54211	-594.49176	221.79042	173.18640	-667.34241	299.27707	159.80728	-629.50403	306.00711	162.21822	-559.58826	258.53232	165.82196	-527.99475	304.39630	146.60587	-685.32843	130.10793	1848.87268	-709.01837	306.76346	1536.34082	-517.70721	-72.29698	142.81010	-796.10297	171.79391	184.55244	-766.42542	-4.32799	209.78360	-794.44000	55.53718	175.68088	-683.52258	147.87845	573.40558	-753.88446	-29.35459	490.92764	-559.63086	-37.33094	164.55244	-876.09265	-78.76758	141.59384				-692.84052	-22.75899	613.17706	-704.49817	-20.21645	568.03094	-715.58667	78.65830	215.81828	-577.86853	228.53644	1073.44897	-780.09607	102.68622	1052.00061	-677.65820	85.31776	574.64978	
455	9.080	-684.32312	-55.12835	1551.75769	-665.57861	-49.00162	733.93353	-572.07306	223.02159	814.84772	-675.38379	268.44644	709.12262	-572.10992	6.64391	803.92535	-631.15216	287.22867	878.37097	-719.36029	252.58258	638.95770	-581.81879	2.71805	1053.94727	-724.88239	248.76779	575.81958	-656.72266	23.79507	518.82446	-766.68280	255.86986	503.48212	-670.91760	209.53314	531.92627	-638.67975	-63.89793	866.12592	-663.19019	-66.83822	163.47148	-711.09863	152.27873	216.36069	-771.61151	222.40045	205.62743	-622.13373	-77.34674	159.29831	-882.54901	296.33197	144.83435	-675.75458	54.99820	157.22641	-603.67029	20.24488	165.99437	-675.63788	174.14197	157.24461	-594.51501	221.72072	173.23067	-667.18030	299.15750	159.86757	-629.61353	306.07791	162.34157	-559.49817	258.53735	165.75294	-528.11713	304.86047	146.80540	-685.23242	130.24197	1848.82703	-708.18713	307.03479	1536.25793	-517.61902	-72.39803	142.81351	-796.23517	171.75539	184.60645	-766.24316	-4.35824	209.67854	-794.42505	55.66626	175.54671	-683.70441	147.87445	573.24609	-753.78186	-29.34844	490.93552	-559.60486	-37.37793	164.25691	-876.03320	-78.59757	141.50241				-692.78973	-22.76536	613.03430	-704.43628	-20.18447	568.23651	-715.72888	78.58614	215.66792	-577.79895	228.59923	1073.39465	-780.09607	102.68622	1052.00061	-677.82880	84.77001	574.37189	
456	9.100	-684.21307	-55.09551	1551.99609	-665.42706	-49.17428	734.13715	-572.04291	222.93440	814.91815	-675.44061	268.75079	709.41772	-572.04260	6.52608	804.03247	-631.15216	287.22867	878.37097	-719.44672	252.71968	639.13605	-581.46210	2.51456	1054.08850	-724.88239	248.76779	575.81958	-656.74146	23.65771	518.92737	-766.64349	255.94971	503.49194	-670.86304	209.43414	532.09918	-638.71625	-64.05478	866.29083	-663.27271	-66.72212	163.42307	-711.15466	152.42155	216.23610	-771.45795	222.18164	205.47354	-622.09241	-77.42897	159.48080	-882.45593	296.22400	144.77756	-675.67163	55.11161	157.02676	-603.73492	20.31607	165.93311	-675.77209	174.12462	157.39767	-594.63983	221.85509	173.21358	-667.34723	299.40665	159.79889	-629.95343	306.08496	162.19293	-559.46313	258.59174	165.84898	-528.16608	304.47485	146.61874	-684.98456	130.26953	1848.79358	-707.91156	307.24356	1536.34204	-517.55914	-72.25758	142.98981	-796.12836	171.83186	184.52750	-766.41162	-4.21898	209.48714	-794.42505	55.66626	175.54671	-683.81549	147.69908	573.09930	-753.89862	-29.41141	490.90036	-559.73193	-37.16803	164.36203	-876.02838	-78.54763	141.55200				-692.90393	-22.78792	613.14880	-705.02991	-19.75163	567.99536	-715.72888	78.58614	215.66792	-577.72430	228.58315	1073.34570	-780.12805	102.78588	1052.17664	-677.45337	84.86996	574.45892	
457	9.120	-683.98627	-54.96246	1552.04663	-665.91956	-49.21034	734.09906	-572.36060	222.62253	814.67365	-675.34247	268.09381	708.92047	-572.10992	6.64391	803.92535	-630.80280	287.12793	878.56244	-719.28430	252.42607	639.05139	-581.68756	2.62355	1054.04736	-724.88239	248.76779	575.81958	-656.77838	23.64375	519.04797	-766.46790	255.97934	503.49820	-670.86304	209.43414	532.09918	-638.79584	-63.75027	866.05695	-663.30298	-66.56647	163.39618	-711.00934	152.23827	216.44478	-771.55951	222.12906	205.65981	-622.15656	-77.39306	159.40735	-882.52899	296.14771	144.63293	-675.67163	55.11161	157.02676	-603.67560	20.32294	165.98579	-675.70630	174.20906	157.36195	-594.53912	221.80385	173.34396	-667.22632	299.31409	159.69881	-629.55823	306.07043	162.35873	-559.49695	258.48868	165.80504	-527.99530	304.51907	146.76074	-684.60107	130.54251	1848.63245	-707.67297	307.16928	1536.12378	-517.64197	-72.44768	142.93640	-796.26636	171.78181	184.34793	-766.39069	-4.16349	209.51166	-794.44189	55.76130	175.42537	-683.77557	147.63449	572.93866	-753.89862	-29.41141	490.90036	-559.69171	-37.29119	164.26405	-876.05139	-78.44123	141.62697				-692.90393	-22.78792	613.14880	-704.94934	-19.89547	567.95624	-715.72888	78.58614	215.66792	-577.53705	228.51169	1073.37878	-780.19122	102.86611	1052.16736	-677.88525	85.17136	574.44006	
458	9.140	-683.94153	-54.75522	1552.19434	-666.04010	-49.19059	734.02631	-572.14728	222.74269	814.73920	-675.38379	268.44644	709.12262	-572.04260	6.52608	804.03247	-630.65961	287.10532	878.38489	-719.36987	252.52525	639.04333	-581.69666	2.47755	1054.08472	-724.82819	248.75755	575.91510	-656.83130	23.50550	519.24860	-766.37823	255.76976	503.08157	-670.86304	209.43414	532.09918	-638.93225	-64.00425	866.14325	-663.30688	-66.68259	163.41502	-711.15466	152.42155	216.23610	-771.74640	222.19576	205.66643	-622.13373	-77.34674	159.29831	-882.60864	296.31985	144.81226	-675.75458	54.99820	157.22641	-603.73492	20.31607	165.93311	-675.69843	174.10995	157.21750	-594.45624	221.91827	173.29128	-667.26184	299.33292	159.72549	-629.67676	305.94989	162.19666	-559.49817	258.53735	165.75294	-528.00299	304.30740	146.63148	-684.20825	130.83075	1848.71509	-707.15399	307.51599	1536.33142	-517.81110	-72.02973	142.79791	-796.22217	171.81346	184.43770	-766.45941	-4.29504	209.64304	-794.42505	55.66626	175.54671	-683.77557	147.63449	572.93866	-753.90198	-29.42816	490.92639	-559.66589	-37.26134	164.32881	-876.02838	-78.54763	141.55200				-693.15973	-22.88955	613.38049	-704.97784	-19.81799	567.93555	-715.72888	78.58614	215.66792	-577.59375	228.50598	1073.18323	-780.17694	102.89310	1052.25830	-678.20142	85.27303	575.01288	
